<svg xmlns="http://www.w3.org/2000/svg" xmlns:xlink="http://www.w3.org/1999/xlink" width="300" zoomAndPan="magnify" viewBox="0 0 224.87999 225" height="300" preserveAspectRatio="xMidYMid meet" version="1.0"><defs><clipPath id="3b95d020a1"><path d="M 0 5.953125 L 224.761719 5.953125 L 224.761719 218.835938 L 0 218.835938 Z M 0 5.953125 " clip-rule="nonzero"/></clipPath></defs><path fill="#dba366" d="M 203.554688 70.609375 C 203.554688 70.601562 203.554688 70.601562 203.546875 70.589844 C 202.503906 68.324219 201.367188 66.097656 200.144531 63.921875 L 200.136719 63.914062 C 182.652344 32.523438 149.082031 11.28125 110.542969 11.28125 C 105.449219 11.28125 100.464844 11.652344 95.570312 12.371094 L 95.5625 12.371094 C 92.277344 12.839844 89.054688 13.476562 85.878906 14.265625 C 69.792969 18.226562 55.203125 25.996094 43.125 36.542969 C 37.109375 41.789062 31.726562 47.722656 27.078125 54.230469 C 17.628906 67.445312 11.253906 83.003906 8.992188 99.859375 C 8.378906 104.351562 8.070312 108.929688 8.070312 113.59375 C 8.070312 115.097656 8.101562 116.601562 8.171875 118.085938 C 10.523438 172.503906 55.457031 215.90625 110.546875 215.90625 C 115.941406 215.90625 121.242188 215.496094 126.402344 214.683594 C 134.632812 213.410156 142.539062 211.15625 150 208.046875 C 168.6875 200.257812 184.570312 187.101562 195.707031 170.511719 C 196.167969 169.839844 196.609375 169.15625 197.042969 168.46875 C 201.734375 161.128906 205.5 153.15625 208.191406 144.707031 C 209.746094 139.855469 210.941406 134.851562 211.746094 129.71875 C 212.585938 124.464844 213.019531 119.078125 213.019531 113.597656 C 213.015625 98.242188 209.632812 83.675781 203.554688 70.609375 Z M 143.738281 122.574219 C 139.199219 140.621094 120.570312 151.519531 102.15625 146.898438 C 83.738281 142.277344 72.492188 123.890625 77.03125 105.84375 C 78.0625 101.722656 83.355469 94.976562 87.796875 90.152344 C 90.476562 87.246094 115.953125 80.851562 118.613281 81.519531 C 137.03125 86.132812 148.289062 104.527344 143.738281 122.574219 Z M 143.738281 122.574219 " fill-opacity="1" fill-rule="nonzero"/><path fill="#1d1d1b" d="M 202.925781 70.75 C 185 31.222656 141.40625 6.019531 95.621094 13.054688 C 74.988281 16.042969 54.839844 26.03125 39.742188 40.925781 C 10.398438 69.585938 1.390625 113.273438 16.757812 151.230469 C 17.308594 152.546875 18.152344 154.429688 18.71875 155.75 C 20.144531 158.6875 21.65625 161.652344 23.304688 164.464844 C 27.976562 172.335938 33.78125 179.675781 40.355469 186.046875 C 55.429688 200.59375 74.859375 210.148438 95.582031 213.273438 C 96.621094 213.390625 99.9375 213.84375 100.964844 213.917969 C 102.464844 214.011719 104.378906 214.203125 105.878906 214.261719 C 109.144531 214.339844 112.476562 214.457031 115.738281 214.25 C 187.519531 210.359375 232.324219 136.109375 202.925781 70.75 Z M 204.183594 70.472656 C 209.929688 82.46875 213.242188 95.851562 213.867188 109.160156 C 217.007812 165.550781 172.332031 214.636719 115.894531 217.289062 C 85.535156 218.804688 56.414062 207.269531 35.398438 185.335938 C 26.09375 175.550781 18.636719 163.929688 13.765625 151.34375 C -2.304688 109.800781 9.980469 62.527344 44.46875 34.222656 C 67.144531 15.417969 97.59375 7.210938 126.554688 11.945312 C 161.167969 17.285156 190.394531 40.734375 204.183594 70.472656 Z M 204.183594 70.472656 " fill-opacity="1" fill-rule="nonzero"/><path fill="#1d1d1b" d="M 144.363281 122.734375 C 139.847656 140.640625 120.4375 152.097656 102.492188 147.773438 C 89.050781 144.957031 77.878906 133.773438 75.324219 120.242188 C 74.339844 115.324219 74.449219 110.160156 75.691406 105.28125 C 76.207031 103.421875 77.167969 101.667969 78.152344 100.054688 C 80.582031 96.132812 83.492188 92.636719 86.5625 89.234375 C 86.753906 89.019531 87.007812 88.792969 87.222656 88.628906 C 88.957031 87.421875 90.96875 86.730469 92.898438 86.019531 C 97.132812 84.546875 101.414062 83.347656 105.757812 82.289062 C 109.023438 81.507812 112.289062 80.753906 115.632812 80.277344 C 116.699219 80.15625 117.871094 79.953125 118.964844 80.171875 C 137.410156 84.816406 149.394531 104.273438 144.363281 122.734375 Z M 143.113281 122.417969 C 147.4375 104.773438 135.820312 86.867188 118.253906 82.875 C 116.453125 82.910156 114.65625 83.351562 112.871094 83.699219 C 110.738281 84.144531 108.609375 84.65625 106.488281 85.195312 C 101.226562 86.59375 95.941406 87.992188 90.953125 90.074219 C 90.214844 90.410156 89.527344 90.707031 88.921875 91.1875 C 85.28125 95.230469 81.601562 99.480469 79.140625 104.339844 C 78.839844 104.941406 78.609375 105.570312 78.425781 106.207031 C 77.320312 110.621094 77.070312 115.257812 77.871094 119.761719 C 80.839844 137.328125 98.148438 149.515625 115.730469 146.957031 C 128.820312 145.261719 140.191406 135.34375 143.113281 122.417969 Z M 143.113281 122.417969 " fill-opacity="1" fill-rule="nonzero"/><path fill="#e0b07b" d="M 26.59375 169.03125 C 26.6875 168.980469 26.832031 168.597656 24.160156 162.546875 C 20.273438 153.742188 18.835938 151.996094 17.625 147.957031 C 17.433594 147.332031 16.828125 145.234375 15.828125 142.324219 C 15.367188 140.976562 15.078125 140.214844 14.890625 139.679688 C 12.957031 134.265625 12.464844 128.859375 12.371094 127.691406 C 12.144531 124.960938 12.394531 124.800781 12.371094 120.523438 C 12.320312 112.363281 11.40625 110.390625 11.472656 105.9375 C 11.53125 102.148438 12.675781 98.632812 14.933594 91.601562 C 17.21875 84.496094 18.429688 82.734375 22.5 71.765625 C 25.066406 64.84375 24.835938 64.863281 25.832031 62.421875 C 33.261719 44.175781 49.910156 33.605469 54.933594 30.425781 C 59.082031 27.792969 62.78125 26.109375 70.1875 22.746094 C 70.1875 22.746094 97.710938 10.234375 108.640625 13.789062 C 109.046875 13.917969 110.582031 14.457031 112.746094 14.8125 C 115.640625 15.289062 117.121094 15.023438 120.5625 14.9375 C 126.648438 14.789062 129.691406 14.71875 132.613281 15.960938 C 134.03125 16.566406 134.898438 17.191406 136.972656 17.753906 C 139.65625 18.480469 141.769531 18.394531 142.484375 18.394531 C 151.109375 18.355469 163.75 29.09375 170.003906 33.195312 C 170.648438 33.621094 170.925781 33.777344 171.542969 34.21875 C 172.980469 35.261719 173.542969 35.910156 173.765625 35.753906 C 173.96875 35.617188 173.769531 34.890625 173.441406 34.390625 C 173.210938 34.035156 172.9375 33.832031 172.863281 33.78125 C 165.933594 28.773438 164.820312 28.152344 164.820312 28.152344 C 158.890625 24.839844 160.203125 25.390625 157.800781 24.152344 C 155.886719 23.160156 150.175781 20.296875 142.097656 17.6875 C 137.847656 16.316406 135.609375 15.59375 132.226562 15 C 127.648438 14.199219 123.601562 14.09375 116.394531 13.210938 C 116.066406 13.171875 115.4375 13.089844 114.570312 13.007812 C 114.570312 13.007812 111.09375 12.671875 107.421875 12.699219 C 104.066406 12.726562 89.433594 13.578125 74.714844 19.417969 C 70.609375 21.050781 66.585938 23.03125 66.128906 23.261719 C 66.128906 23.261719 62.203125 25.203125 58.691406 27.269531 C 39.882812 38.355469 26.261719 58.796875 26.261719 58.796875 C 21.710938 65.628906 19.207031 71.089844 18.484375 72.703125 C 15.144531 80.164062 13.675781 86.183594 12.757812 90.023438 C 8.851562 106.394531 9.734375 119.105469 10.023438 122.449219 C 10.382812 126.644531 11.007812 130.195312 11.132812 130.894531 C 12.246094 137.136719 13.742188 141.785156 14.722656 144.804688 C 15.792969 148.089844 16.664062 150.289062 18.140625 154.019531 C 19.246094 156.8125 21.355469 161.96875 24.976562 167.160156 C 26.003906 168.632812 26.457031 169.105469 26.59375 169.03125 Z M 26.59375 169.03125 " fill-opacity="1" fill-rule="nonzero"/><path fill="#b17f49" d="M 35.65625 181.691406 C 36.160156 182.253906 36.84375 183.007812 37.675781 183.878906 C 38.414062 184.65625 40.417969 186.734375 43.351562 189.382812 C 45.574219 191.390625 47.082031 192.753906 49.332031 194.4375 C 51.269531 195.886719 53.261719 197.144531 57.238281 199.667969 C 58.96875 200.765625 59.835938 201.316406 60.765625 201.859375 C 64.25 203.910156 67.082031 205.230469 68.519531 205.875 C 69.03125 206.105469 70.179688 206.613281 72.285156 207.441406 C 74.722656 208.402344 78.480469 209.886719 82.835938 211.183594 C 85.019531 211.832031 91.246094 213.589844 99.582031 214.511719 C 101.113281 214.679688 105.550781 215.132812 111.378906 215.109375 C 111.378906 215.109375 118.082031 215.078125 124.453125 214.253906 C 138.144531 212.484375 151.003906 206.90625 155.476562 204.871094 C 157.144531 204.113281 159.46875 202.988281 162.140625 201.457031 C 166.164062 199.148438 170.117188 196.410156 175.214844 192.070312 C 182.359375 185.992188 188.503906 180.699219 194.445312 172.339844 C 203.566406 159.523438 207.4375 146.117188 206.878906 145.84375 C 206.507812 145.664062 203.261719 150.910156 200.941406 156.9375 C 199.761719 159.996094 200.144531 159.820312 199.207031 162.1875 C 197.9375 165.398438 194.648438 173.71875 187.777344 177.226562 C 186.382812 177.9375 184.371094 178.691406 182.308594 180.8125 C 180.765625 182.394531 180.035156 183.878906 179.746094 184.394531 C 177.042969 189.140625 167.128906 189.503906 162.308594 190.195312 C 149.144531 192.089844 150.539062 199.828125 135.304688 204.359375 C 128.191406 206.480469 121.957031 206.28125 109.496094 205.894531 C 96.402344 205.488281 86.65625 203.542969 84.027344 202.996094 C 75.890625 201.300781 65.03125 198.28125 52.917969 192.585938 " fill-opacity="1" fill-rule="nonzero"/><path fill="#e72f82" d="M 214.03125 133.140625 C 213.539062 131.617188 212.796875 130.957031 211.742188 129.710938 C 211.398438 129.300781 211.015625 128.828125 210.597656 128.238281 C 210.597656 128.238281 208.898438 125.84375 207.65625 122.355469 C 206.734375 119.789062 207.003906 118.765625 206.671875 112.550781 C 206.25 104.589844 205.648438 103.175781 205.941406 97.839844 C 206.078125 95.125 206.242188 95.394531 206.421875 92.6875 C 206.523438 91.234375 207.085938 81.652344 203.5625 70.609375 C 203.5625 70.601562 203.5625 70.601562 203.554688 70.589844 C 202.679688 67.851562 201.816406 65.847656 200.148438 63.921875 L 200.140625 63.914062 C 199.136719 62.742188 198.34375 62.199219 195.382812 60.09375 C 190.433594 56.554688 188.0625 54.789062 187.277344 54.210938 C 181.53125 49.898438 180.710938 48.785156 180.160156 47.59375 C 179.835938 46.890625 179.433594 45.796875 178.441406 44.402344 C 177.941406 43.703125 176.90625 42.265625 175.25 41.214844 C 173.820312 40.300781 172.660156 40.140625 170.828125 39.742188 C 166.421875 38.789062 164.210938 38.308594 163.21875 37.539062 C 160.15625 35.160156 162.464844 31.53125 159.050781 26.75 C 158.355469 25.785156 156.589844 23.582031 153.648438 22.339844 C 150.878906 21.175781 148.589844 21.496094 144.558594 21.847656 C 144.558594 21.847656 138.527344 22.386719 132.773438 22.585938 C 125.84375 22.820312 118.765625 23.070312 112.15625 19.398438 C 110.148438 18.285156 110.207031 17.933594 107.484375 16.449219 C 104.101562 14.613281 100.417969 12.601562 95.578125 12.367188 L 95.566406 12.367188 C 91.640625 12.179688 88.699219 13.242188 85.886719 14.265625 C 83.488281 15.136719 79.972656 16.460938 76.796875 19.636719 C 75.0625 21.371094 75.132812 22.191406 73.605469 23.808594 C 71.9375 25.570312 68.753906 28.441406 60.351562 31.648438 C 54.464844 33.902344 48.894531 35.226562 46.351562 35.816406 C 45.125 36.097656 44.070312 36.328125 43.125 36.539062 C 39.773438 37.273438 37.9375 37.675781 35.546875 39.246094 C 31.953125 41.625 30.074219 44.683594 29.410156 45.863281 C 28.246094 47.96875 27.410156 50.40625 27.082031 54.226562 C 27.03125 54.839844 26.992188 55.480469 26.960938 56.160156 C 26.449219 68.261719 30.929688 70.417969 29.167969 78.226562 C 28.890625 79.46875 27.484375 85.144531 22.785156 89.503906 C 20.003906 92.082031 18.714844 91.738281 13.453125 95.871094 C 11.457031 97.445312 10.019531 98.761719 8.996094 99.851562 C 7.078125 101.886719 6.554688 103.121094 6.335938 103.722656 C 5.179688 106.800781 5.582031 109.578125 5.84375 111.320312 C 6.246094 114.027344 7.171875 116.273438 8.175781 118.078125 C 8.980469 119.511719 9.820312 120.683594 10.503906 121.605469 C 13.476562 125.636719 14.75 125.316406 19.101562 130.679688 C 20.164062 131.992188 21.660156 133.855469 23.277344 136.5625 C 24.171875 138.066406 26.128906 141.394531 27.449219 145.878906 C 27.710938 146.75 28.613281 149.925781 28.921875 156.175781 C 29.484375 167.382812 27.164062 168.90625 29.171875 173.578125 C 29.496094 174.347656 32.15625 180.316406 37.515625 181.910156 C 40.316406 182.742188 42.113281 181.859375 46.113281 183.382812 C 47.449219 183.894531 48.640625 184.613281 51.023438 186.078125 C 55.113281 188.574219 55.800781 189.46875 59.367188 191.714844 C 63.882812 194.5625 63.664062 193.710938 66.242188 195.636719 C 69.660156 198.203125 69.585938 199.375 73.363281 202.25 C 74.847656 203.394531 76.316406 204.246094 79.246094 205.933594 C 83.625 208.457031 85.816406 209.722656 88.09375 210.34375 C 91.144531 211.183594 91.839844 210.433594 97.664062 210.34375 C 104.363281 210.242188 104.746094 211.214844 117.558594 212.308594 C 118.773438 212.410156 120.261719 212.53125 122.21875 213.042969 C 124.257812 213.574219 125.363281 214.15625 126.40625 214.675781 C 127.195312 215.078125 127.960938 215.445312 129.09375 215.738281 C 132.449219 216.601562 135.363281 215.816406 137.4375 215.246094 C 140.3125 214.476562 142.078125 213.332031 145.542969 211.085938 C 147.421875 209.863281 148.855469 208.925781 150 208.039062 C 151.21875 207.074219 152.121094 206.164062 152.902344 204.949219 C 154.660156 202.261719 153.886719 201.378906 155.605469 198.582031 C 157.875 194.882812 161.289062 193.070312 162.484375 192.457031 C 168.265625 189.460938 171.367188 191.84375 175.003906 188.527344 C 176.859375 186.832031 177.9375 184.488281 178.441406 183.382812 C 180.097656 179.753906 179.371094 178.320312 180.902344 176.769531 C 182.699219 174.921875 184.414062 176.226562 188.753906 174.804688 C 189.574219 174.535156 193.320312 173.300781 195.710938 170.503906 C 196.242188 169.902344 196.695312 169.21875 197.046875 168.457031 C 198.058594 166.273438 197.324219 165.289062 197.585938 162.304688 C 198.402344 153.28125 206.617188 146.042969 207.660156 145.148438 C 207.839844 144.996094 208.011719 144.847656 208.191406 144.695312 C 210.875 142.492188 213.132812 141.316406 214.035156 138.28125 C 214.191406 137.746094 214.8125 135.558594 214.03125 133.140625 Z M 102.15625 146.898438 C 83.738281 142.277344 72.492188 123.890625 77.03125 105.84375 C 78.0625 101.722656 83.355469 94.976562 87.796875 90.152344 C 90.476562 87.246094 115.953125 80.851562 118.613281 81.519531 C 137.03125 86.132812 148.285156 104.527344 143.738281 122.574219 C 139.199219 140.621094 120.574219 151.519531 102.15625 146.898438 Z M 102.15625 146.898438 " fill-opacity="1" fill-rule="nonzero"/><g clip-path="url(#3b95d020a1)"><path stroke-linecap="butt" transform="matrix(0.297974, 0, 0, 0.297501, -50.92272, -46.947078)" fill="none" stroke-linejoin="miter" d="M 889.184746 605.334915 C 887.532966 600.214133 885.042187 597.995127 881.502659 593.80659 C 880.349035 592.427918 879.064317 590.839162 877.661615 588.8565 C 877.661615 588.8565 871.959042 580.807681 867.790264 569.082403 C 864.696455 560.455854 865.601001 557.015739 864.486705 536.125574 C 863.070894 509.366204 861.052052 504.613068 862.035254 486.6772 C 862.494082 477.551703 863.044675 478.457688 863.647706 469.358451 C 863.988549 464.474013 865.876297 432.265606 854.051651 395.1465 C 854.051651 395.120239 854.051651 395.120239 854.025433 395.080849 C 851.088935 385.876571 848.191766 379.140773 842.594068 372.667579 L 842.567849 372.641318 C 839.198743 368.702255 836.537542 366.877156 826.600644 359.799972 C 809.991081 347.904001 802.033697 341.969146 799.398715 340.025874 C 780.114841 325.530122 777.361875 321.788012 775.513454 317.783297 C 774.425377 315.419859 773.075113 311.7434 769.745334 307.055915 C 768.067336 304.705607 764.593355 299.87369 759.034984 296.341663 C 754.236957 293.269194 750.343476 292.730855 744.195185 291.391573 C 729.407823 288.187802 721.987923 286.572786 718.658145 283.986135 C 708.380404 275.989836 716.128038 263.79187 704.670454 247.720492 C 702.336987 244.47733 696.411555 237.071891 686.540204 232.896484 C 677.245665 228.983681 669.563578 230.060359 656.034715 231.242078 C 656.034715 231.242078 635.793858 233.054047 616.483765 233.723687 C 593.227754 234.5115 569.473588 235.351834 547.292545 223.009435 C 540.554332 219.267325 540.750972 218.085606 531.613746 213.096126 C 520.261037 206.924927 507.898907 200.162868 491.656406 199.375056 L 491.617078 199.375056 C 478.442167 198.744806 468.570817 202.316223 459.132075 205.756338 C 451.082926 208.684375 439.284498 213.135517 428.626586 223.810378 C 422.806028 229.640192 423.041997 232.397536 417.916236 237.833443 C 412.318538 243.755169 401.634406 253.405873 373.436165 264.185777 C 353.680354 271.761908 334.986402 276.21305 326.452206 278.195712 C 322.335866 279.141087 318.796338 279.915769 315.623872 280.624801 C 304.376038 283.09328 298.214637 284.445692 290.191707 289.724037 C 278.131092 297.720335 271.825489 308.00129 269.596897 311.966614 C 265.690306 319.043798 262.884903 327.237049 261.783716 340.078395 C 261.613294 342.139838 261.482201 344.293193 261.377326 346.57785 C 259.659999 387.255243 274.696439 394.503119 268.784116 420.750411 C 267.853351 424.925818 263.133981 444.004014 247.363416 458.65733 C 238.029549 467.323269 233.703459 466.16781 216.045147 480.059573 C 209.346262 485.351048 204.522016 489.775929 201.087363 493.439258 C 194.650665 500.280098 192.894011 504.429245 192.159886 506.451297 C 188.279515 516.797903 189.629779 526.133483 190.508107 531.989557 C 191.858371 541.088793 194.96529 548.638665 198.334397 554.704822 C 201.034925 559.523609 203.853439 563.462673 206.147577 566.561402 C 216.123803 580.11178 220.397455 579.035103 235.001286 597.062882 C 238.567033 601.474633 243.58792 607.737744 249.015196 616.83698 C 252.01724 621.892111 258.585031 633.079051 263.015996 648.152533 C 263.894324 651.08057 266.922587 661.755431 267.958226 682.763768 C 269.845975 720.434343 262.059013 725.555126 268.797226 741.258858 C 269.885303 743.845509 278.812779 763.908472 296.798826 769.265598 C 306.19824 772.062332 312.228547 769.094905 325.652535 774.215687 C 330.135938 775.935745 334.134293 778.351703 342.131005 783.275533 C 355.856509 791.665737 358.163757 794.672556 370.132606 802.222427 C 385.28703 811.794351 384.552906 808.931965 393.205086 815.405159 C 404.675779 824.031707 404.426701 827.97077 417.103455 837.634605 C 422.085013 841.481757 427.014134 844.344143 436.846157 850.016394 C 451.541753 858.498511 458.896106 862.752699 466.538865 864.840402 C 476.777278 867.663398 479.110745 865.142397 498.656806 864.840402 C 521.139364 864.499017 522.424082 867.768439 565.422794 871.444898 C 569.499806 871.786284 574.494474 872.19332 581.062265 873.913378 C 587.905353 875.699087 591.615303 877.655488 595.115503 879.401806 C 597.763594 880.754218 600.333029 881.988458 604.134745 882.973224 C 615.395688 885.875 625.175273 883.235828 632.136345 881.318817 C 641.784837 878.732165 647.710269 874.885014 659.338275 867.335142 C 665.643879 863.225386 670.455015 860.074136 674.296059 857.093578 C 678.38618 853.850416 681.414443 850.791077 684.036316 846.707581 C 689.935529 837.673996 687.339875 834.706568 693.107995 825.305337 C 700.724535 812.871028 712.182119 806.77861 716.193584 804.717167 C 735.595442 794.646295 746.004277 802.655724 758.209095 791.508175 C 764.436042 785.809663 768.054227 777.931537 769.745334 774.215687 C 775.303705 762.017721 772.865363 757.198934 778.004234 751.98624 C 784.034541 745.77565 789.789551 750.161141 804.354054 745.381744 C 807.107021 744.475759 819.6789 740.326613 827.701831 730.925382 C 829.484704 728.903329 831.00539 726.605542 832.185233 724.045151 C 835.580558 716.705364 833.115998 713.39655 833.994325 703.365069 C 836.734182 673.034282 864.303174 648.704001 867.803374 645.697183 C 868.406404 645.185105 868.983216 644.686157 869.586247 644.174079 C 878.59238 636.76864 886.169592 632.816446 889.197855 622.614273 C 889.72223 620.815434 891.806618 613.462516 889.184746 605.334915 Z M 513.732574 651.579518 C 451.921925 636.046478 414.180067 574.242576 429.413148 513.581002 C 432.87402 499.728629 450.637207 477.052755 465.542554 460.836945 C 474.535577 451.068068 560.034846 429.573913 568.962323 431.819179 C 630.772972 447.325958 668.541048 509.156121 653.281749 569.817695 C 638.048668 630.479269 575.543223 667.112557 513.732574 651.579518 Z M 513.732574 651.579518 " stroke="#1d1d1b" stroke-width="3.37" stroke-opacity="1" stroke-miterlimit="10"/></g><path stroke-linecap="butt" transform="matrix(0.297974, 0, 0, 0.297501, -50.92272, -46.947078)" fill-opacity="1" fill="#dba366" fill-rule="nonzero" stroke-linejoin="miter" d="M 683.210426 532.015818 C 676.341119 493.321086 639.372714 486.755981 639.543136 455.374777 C 639.608683 444.33227 644.183851 439.736696 640.355916 430.63746 C 635.505452 419.109134 620.770527 409.313997 607.385867 410.049289 C 600.922951 410.416935 597.344095 413.148019 585.991386 413.344972 C 579.790657 413.450014 575.241708 412.740982 573.616147 412.504638 C 560.113502 410.613888 537.853803 412.071341 523.367956 415.813452 C 489.965298 424.400609 488.051331 447.48352 461.557307 447.115874 C 452.328315 447.023963 447.844913 444.122186 439.323826 447.115874 C 427.053462 451.435714 420.72164 462.793346 415.425457 472.654134 C 411.296007 480.335308 402.696265 498.441868 401.411547 524.584118 C 400.598767 540.996882 399.523799 562.937464 412.135007 582.252004 C 415.123941 586.834448 416.212019 587.136443 430.265256 606.135858 C 440.202154 619.594324 442.706042 623.533387 445.091946 629.218769 C 448.120209 636.427254 447.674491 638.593739 450.846957 642.4015 C 456.012046 648.59896 463.313962 650.319017 472.280766 652.275419 C 489.598236 656.10944 493.884998 651.999684 501.934147 657.225508 C 507.964454 661.125181 506.692846 664.131999 514.309386 670.39511 C 520.064397 675.148246 527.694046 679.1267 534.065197 680.308419 C 548.41995 682.895071 557.177005 671.379876 580.236375 658.026451 C 605.838962 643.202443 605.616103 651.290653 621.412886 639.933021 C 642.033915 625.069622 637.589841 614.788667 667.544736 583.052947 C 671.346452 579.035103 676.275572 574.085013 679.906866 565.76046 C 686.369782 550.975842 684.049425 536.690173 683.210426 532.015818 Z M 653.281749 569.817695 C 638.048668 630.479269 575.530114 667.112557 513.732574 651.579518 C 451.921925 636.046478 414.180067 574.242576 429.413148 513.581002 C 432.87402 499.728629 450.637207 477.052755 465.542554 460.836945 C 474.535577 451.068068 560.034846 429.573913 568.962323 431.819179 C 630.772972 447.325958 668.554157 509.156121 653.281749 569.817695 Z M 653.281749 569.817695 " stroke="#1d1d1b" stroke-width="3.37" stroke-opacity="1" stroke-miterlimit="10"/><path fill="#e5bd91" d="M 146.839844 118.988281 C 146.578125 120.027344 146.378906 120.511719 145.300781 124.359375 C 144.960938 125.582031 144.878906 125.882812 144.660156 126.414062 C 144.257812 127.359375 143.925781 127.769531 142.179688 130.425781 C 141.355469 131.679688 141.394531 131.640625 141.117188 132.042969 C 140.230469 133.304688 139.929688 133.566406 139.320312 134.515625 C 138.886719 135.1875 138.636719 135.6875 138.203125 136.523438 C 137.238281 138.425781 137.238281 138.847656 136.585938 139.46875 C 136.242188 139.792969 136.195312 139.730469 134.871094 140.492188 C 133.867188 141.074219 133.183594 141.527344 132.097656 142.238281 C 130.222656 143.46875 130.050781 143.738281 129.066406 144.371094 C 127.308594 145.496094 125.789062 145.976562 124.105469 146.507812 C 121.128906 147.441406 120.078125 147.242188 118.078125 148.476562 C 117.113281 149.066406 117.234375 149.199219 116.503906 149.539062 C 116.089844 149.726562 115.046875 150.160156 110.992188 149.878906 C 108.703125 149.71875 107.789062 149.5 106.972656 149.199219 C 106.101562 148.875 104.984375 148.335938 105.046875 148.136719 C 105.125 147.886719 106.855469 148.355469 109.363281 148.515625 C 111.269531 148.636719 112.6875 148.527344 113.851562 148.425781 C 118.167969 148.078125 121.394531 146.992188 122.265625 146.683594 C 122.96875 146.433594 125.269531 145.601562 128.027344 143.996094 C 128.78125 143.558594 130.417969 142.5625 132.265625 141.101562 C 136.113281 138.03125 138.542969 134.753906 139.695312 133.027344 C 139.695312 133.027344 144.054688 126.574219 145.550781 117.96875 C 146.023438 115.292969 146.015625 113.535156 145.984375 112.726562 C 145.882812 109.539062 145.132812 106.933594 144.910156 106.199219 C 144.308594 104.1875 143.714844 103.101562 143.882812 103.003906 C 144.144531 102.851562 145.941406 104.746094 146.96875 107.222656 C 148.738281 111.507812 147.574219 116.089844 146.839844 118.988281 Z M 146.839844 118.988281 " fill-opacity="1" fill-rule="nonzero"/><path fill="#b17f49" d="M 76.140625 122.507812 C 76.804688 122.242188 76.523438 119.988281 76.335938 118.460938 C 76.078125 116.367188 75.683594 115.582031 75.738281 113.660156 C 75.753906 113.023438 75.8125 112.535156 75.90625 111.867188 C 76.414062 108.308594 76.707031 106.238281 77.488281 104.082031 C 78.167969 102.203125 79.144531 100.777344 81.101562 97.917969 C 83.222656 94.816406 84.984375 92.871094 86.140625 91.6875 C 88.078125 89.710938 89.496094 88.65625 91.269531 87.976562 C 92.175781 87.628906 92.890625 87.488281 93.214844 87.421875 C 95.589844 86.9375 95.839844 86.65625 103.996094 84.285156 C 115.621094 80.910156 116.90625 80.953125 118.292969 81.277344 C 119.949219 81.664062 121.472656 82.375 124.246094 83.667969 C 128.671875 85.734375 131.023438 87.507812 131.796875 86.78125 C 132.324219 86.285156 131.804688 84.914062 131.542969 84.222656 C 131.429688 83.933594 130.835938 82.429688 129.234375 81.492188 C 128.070312 80.8125 126.941406 80.761719 126.15625 80.726562 C 125.402344 80.691406 125.230469 80.789062 124.535156 80.8125 C 123.21875 80.851562 122.613281 80.539062 120.003906 79.789062 C 117.914062 79.183594 116.859375 78.882812 116.15625 78.933594 C 115.046875 79.015625 115.089844 79.335938 112.996094 79.871094 C 112.046875 80.117188 112.0625 80.042969 109.320312 80.554688 C 107.792969 80.839844 107.027344 80.980469 106.332031 81.152344 C 104.359375 81.628906 104.371094 81.855469 102.570312 82.347656 C 99.527344 83.175781 98.964844 82.679688 97.097656 83.625 C 96.230469 84.066406 96.144531 84.28125 94.875 84.90625 C 93.765625 85.453125 92.886719 85.308594 91.882812 86.101562 C 91.585938 86.335938 91.613281 86.375 91.136719 86.828125 C 91.136719 86.828125 90.097656 87.816406 88.679688 88.703125 C 87.058594 89.722656 85.484375 89.503906 82.15625 90.199219 C 80.136719 90.625 77.195312 91.238281 77.144531 92.171875 C 77.082031 93.28125 81.152344 93.789062 81.199219 95.316406 C 81.226562 96.253906 79.671875 96.398438 78.207031 98.558594 C 77.5625 99.507812 77.816406 99.496094 76.753906 101.542969 C 75.75 103.476562 75.386719 103.753906 74.617188 105.300781 C 74.617188 105.300781 73.816406 106.902344 73.25 108.710938 C 72.949219 109.667969 70.769531 116.9375 74.273438 121.085938 C 74.445312 121.273438 75.546875 122.75 76.140625 122.507812 Z M 76.140625 122.507812 " fill-opacity="1" fill-rule="nonzero"/><path fill="#1d1d1b" d="M 92.449219 88.351562 C 89.878906 89.328125 87.140625 89.949219 84.394531 90.058594 C 81.710938 90.089844 79.042969 90.789062 76.941406 92.523438 C 76.941406 92.523438 76.75 92.296875 76.75 92.296875 C 78.300781 90.9375 80.253906 90 82.296875 89.660156 C 84.308594 89.359375 86.339844 89.292969 88.289062 88.730469 C 89.582031 88.394531 90.84375 87.949219 92.070312 87.425781 Z M 92.449219 88.351562 " fill-opacity="1" fill-rule="nonzero"/><path fill="#1d1d1b" d="M 74.558594 121.566406 C 78.894531 127.839844 82.84375 134.363281 86.523438 141.042969 C 82.230469 134.742188 78.199219 128.269531 74.558594 121.566406 Z M 74.558594 121.566406 " fill-opacity="1" fill-rule="nonzero"/><path fill="#ffffff" d="M 209.269531 111.050781 C 210.324219 108.28125 211.382812 105.511719 212.441406 102.738281 " fill-opacity="1" fill-rule="nonzero"/><path fill="#1d1d1b" d="M 209.257812 111.050781 C 209.082031 110.785156 209.167969 110.617188 209.222656 110.441406 L 209.394531 109.914062 C 209.609375 109.242188 210.21875 107.433594 210.449219 106.746094 C 210.933594 105.339844 211.433594 103.945312 211.972656 102.5625 C 211.972656 102.5625 212.910156 102.917969 212.910156 102.917969 C 212.160156 104.925781 211.230469 107.121094 210.378906 109.097656 C 210.378906 109.097656 209.929688 110.117188 209.929688 110.117188 L 209.707031 110.628906 C 209.632812 110.796875 209.585938 110.976562 209.277344 111.058594 Z M 209.257812 111.050781 " fill-opacity="1" fill-rule="nonzero"/><path fill="#1d1d1b" d="M 17.878906 139.9375 C 19.609375 141.851562 21.003906 144.222656 21.183594 146.863281 C 21.203125 148.136719 21.113281 149.378906 21.398438 150.628906 C 21.640625 151.855469 22.085938 153.042969 22.664062 154.1875 C 21.453125 152.683594 20.703125 150.757812 20.5625 148.816406 C 20.511719 147.511719 20.601562 146.332031 20.214844 145.089844 C 19.734375 143.25 18.820312 141.597656 17.878906 139.9375 Z M 17.878906 139.9375 " fill-opacity="1" fill-rule="nonzero"/><path fill="#ec66a2" d="M 7.347656 111.363281 C 8.773438 112.507812 11.273438 111.515625 14.460938 110.15625 C 21.667969 107.085938 25.28125 105.5625 26.425781 104.695312 C 32.4375 100.152344 30.976562 96.695312 38.050781 86.605469 C 42.628906 80.074219 45.386719 76.136719 50.699219 73.976562 C 53.695312 72.761719 57.21875 72.230469 63.6875 71.246094 C 68.832031 70.46875 69.082031 70.738281 71.550781 70.222656 C 77.777344 68.921875 79.988281 66.402344 86.25 63.058594 C 97.632812 56.96875 100.253906 59.988281 105.050781 55.207031 C 111.003906 49.273438 107.546875 44.050781 112.230469 40.53125 C 115.480469 38.085938 119.796875 38.609375 149.148438 47.015625 C 157.570312 49.425781 164.820312 51.660156 170.34375 48.039062 C 172.574219 46.574219 175.828125 43.3125 175.128906 41.855469 C 174.90625 41.390625 174.113281 41.140625 172.523438 40.636719 C 171.871094 40.433594 171.269531 40.277344 168.644531 39.75 C 167.449219 39.507812 166.390625 39.308594 164.992188 38.875 C 164.335938 38.671875 163.734375 38.460938 163.078125 38 C 162.789062 37.796875 162.195312 37.371094 161.722656 36.636719 C 161.335938 36.035156 161.203125 35.386719 160.941406 34.085938 C 160.789062 33.324219 160.78125 33.039062 160.484375 31.460938 C 160.410156 31.0625 160.371094 30.863281 160.335938 30.703125 C 160.320312 30.636719 160.027344 29.363281 159.5625 28.367188 C 159.246094 27.691406 158.894531 27.230469 157.75 25.9375 C 156.183594 24.167969 155.402344 23.285156 155.164062 23.121094 C 153.359375 21.890625 151.257812 21.890625 149.445312 21.886719 C 148.542969 21.882812 148.847656 21.964844 146.242188 22.101562 C 144.710938 22.179688 144.097656 22.175781 142.566406 22.269531 C 141.613281 22.328125 140.988281 22.378906 140.003906 22.460938 C 138.65625 22.574219 135.394531 22.839844 133.191406 22.996094 C 130.539062 23.179688 129.210938 23.273438 128.027344 23.285156 C 125.8125 23.300781 122.625 23.308594 118.703125 22.339844 C 115.804688 21.625 113.855469 21.144531 111.84375 19.730469 C 111.191406 19.273438 110.230469 18.507812 108.574219 17.558594 C 108.304688 17.402344 107.527344 16.960938 105.691406 16.085938 C 103.5 15.039062 102.40625 14.519531 101.394531 14.164062 C 98.949219 13.308594 96.886719 13.203125 95.4375 13.140625 C 93.816406 13.074219 90.46875 12.960938 86.78125 14.359375 C 86.582031 14.4375 85.261719 15.050781 82.617188 16.277344 C 80.113281 17.441406 79.746094 17.632812 79.21875 18.007812 C 78.253906 18.695312 77.863281 19.214844 75.886719 21.589844 C 73.828125 24.066406 72.789062 25.3125 72.359375 25.6875 C 70.992188 26.890625 69.769531 27.519531 67.535156 28.675781 C 66.519531 29.199219 65.292969 29.734375 62.835938 30.808594 C 60.902344 31.652344 59.921875 32.042969 59.394531 32.246094 C 58.304688 32.671875 57.308594 33.03125 56.210938 33.410156 C 54.511719 33.992188 51.683594 34.96875 48.582031 35.800781 C 41.179688 37.792969 39.921875 36.929688 36.65625 38.984375 C 36.296875 39.207031 34.75 40.195312 33.070312 41.894531 C 32.222656 42.75 30.75 44.265625 29.546875 46.648438 C 28.78125 48.164062 28.441406 49.402344 28.167969 50.4375 C 27.304688 53.683594 27.335938 56.34375 27.367188 58.277344 C 27.398438 60.15625 27.566406 61.535156 27.738281 62.898438 C 28.339844 67.785156 29.042969 68.449219 29.421875 72.191406 C 29.667969 74.664062 29.875 76.75 29.25 79.441406 C 28.539062 82.511719 27.132812 84.671875 26.199219 86.082031 C 25.382812 87.316406 24.199219 89.078125 22.128906 90.753906 C 20.527344 92.050781 20.289062 91.765625 17.242188 93.730469 C 14.96875 95.195312 13.476562 96.402344 12.097656 97.519531 C 10.097656 99.148438 9.199219 100.070312 8.402344 101.105469 C 7.394531 102.414062 6.984375 103.332031 6.890625 103.550781 C 6.597656 104.226562 5.992188 105.667969 6.089844 107.546875 C 6.140625 108.585938 6.238281 110.472656 7.347656 111.363281 Z M 7.347656 111.363281 " fill-opacity="1" fill-rule="nonzero"/><path fill="#ec66a2" d="M 72.328125 127.726562 C 72.480469 127.914062 72.6875 128.175781 72.925781 128.480469 C 73.066406 128.660156 73.703125 129.464844 74.410156 130.382812 C 75.214844 131.425781 75.835938 132.226562 76.621094 133.292969 C 77.039062 133.859375 76.855469 133.621094 79.027344 136.683594 C 80.109375 138.214844 80.324219 138.507812 80.628906 139.117188 C 80.839844 139.53125 81.242188 140.386719 81.621094 141.453125 C 81.820312 142 82.007812 142.605469 82.421875 143.4375 C 82.683594 143.953125 82.851562 144.199219 82.96875 144.363281 C 83.070312 144.503906 83.433594 144.984375 84.105469 145.5 C 84.761719 146 85.355469 146.269531 85.726562 146.429688 C 86.28125 146.664062 87.878906 147.300781 90.484375 147.742188 C 92.308594 148.050781 93.214844 148.203125 94.183594 148.128906 C 94.453125 148.105469 95.078125 148.039062 95.90625 148.152344 C 96.214844 148.191406 96.78125 148.265625 97.375 148.507812 C 98.285156 148.875 98.828125 149.457031 99.875 150.601562 C 100.691406 151.496094 100.605469 151.546875 101.222656 152.171875 C 102.085938 153.050781 102.878906 153.585938 103.320312 153.882812 C 104.113281 154.410156 105.382812 155.246094 107.230469 155.71875 C 107.980469 155.914062 108.902344 156.148438 110.046875 156.0625 C 111.480469 155.953125 112.503906 155.394531 114.066406 154.441406 C 116.753906 152.796875 117.519531 152.121094 119.746094 150.6875 C 121.707031 149.425781 122.910156 148.660156 124.703125 147.871094 C 126.003906 147.300781 127.070312 146.832031 128.589844 146.417969 C 129.632812 146.140625 130.113281 146.09375 131.070312 145.695312 C 131.921875 145.335938 132.527344 144.957031 133.589844 144.285156 C 134.699219 143.585938 135.253906 143.234375 135.898438 142.707031 C 137.171875 141.664062 138.027344 140.621094 138.71875 139.765625 C 139.207031 139.160156 139.546875 138.679688 139.65625 138.527344 C 141.042969 136.574219 141.246094 135.660156 142.648438 133.707031 C 142.75 133.566406 142.976562 133.265625 143.4375 132.667969 C 144.824219 130.855469 145.628906 129.808594 146.71875 128.570312 C 146.769531 128.511719 146.707031 128.585938 148.5 126.632812 C 150.050781 124.945312 150.160156 124.824219 150.378906 124.53125 C 150.578125 124.269531 151.375 123.199219 152.089844 121.609375 C 152.5 120.695312 152.789062 120.0625 152.964844 119.136719 C 153.242188 117.695312 152.953125 117.15625 153.351562 116.808594 C 154.007812 116.242188 156.019531 116.667969 156.707031 117.832031 C 157.773438 119.644531 154.617188 121.535156 152.730469 127.6875 C 151.988281 130.113281 152.03125 131.28125 150.808594 134.472656 C 149.984375 136.628906 149.765625 136.613281 149.269531 138.183594 C 148.515625 140.566406 148.628906 141.847656 148.246094 145.605469 C 147.882812 149.199219 147.699219 150.992188 147.347656 151.878906 C 146.160156 154.871094 143.746094 156.414062 140.425781 158.535156 C 138.675781 159.652344 135.035156 161.929688 129.660156 163.015625 C 127.351562 163.476562 124.542969 163.457031 119.019531 163.398438 C 113.09375 163.332031 110.128906 163.300781 106.582031 163.015625 C 100.363281 162.511719 98.5 161.871094 96.199219 163.140625 C 94.449219 164.105469 93.496094 164.382812 91.582031 164.933594 C 90.488281 165.25 89.640625 165.414062 88.765625 165.0625 C 87.6875 164.625 87.164062 163.640625 86.972656 163.269531 C 86.238281 161.851562 86.558594 160.675781 86.585938 159.046875 C 86.597656 158.386719 86.644531 155.453125 85.433594 153.285156 C 84.230469 151.144531 82.0625 150.222656 79.023438 148.933594 C 75.414062 147.402344 74.742188 148.039062 73.253906 146.757812 C 70.820312 144.664062 70.578125 141.203125 70.4375 139.207031 C 70.222656 136.214844 70.917969 133.722656 71.589844 132.042969 " fill-opacity="1" fill-rule="nonzero"/><path fill="#dd007e" d="M 24.671875 136.507812 C 26.0625 139.371094 27.671875 143.164062 29.03125 147.769531 C 30.0625 151.246094 30.746094 153.5625 31.082031 156.855469 C 31.554688 161.457031 30.808594 162.679688 31.339844 169.398438 C 31.59375 172.648438 31.941406 174.523438 33.132812 176.4375 C 33.613281 177.207031 34.863281 179.167969 37.234375 180.277344 C 39.1875 181.191406 40.339844 180.800781 42.75 181.171875 C 44.605469 181.460938 45.828125 181.988281 49.796875 183.988281 C 57.648438 187.941406 61.574219 189.921875 64.410156 191.921875 C 66.492188 193.390625 68.199219 194.789062 71.589844 197.554688 C 75.511719 200.753906 76.152344 201.492188 78.511719 203.058594 C 81.429688 204.992188 83.757812 206.503906 87.097656 207.027344 C 88.800781 207.292969 88.722656 206.980469 91.972656 207.28125 C 95.171875 207.578125 95.980469 207.945312 98.894531 208.304688 C 102.363281 208.734375 102.253906 208.339844 106.070312 208.691406 C 107.574219 208.828125 110 209.25 114.785156 210.097656 C 121.117188 211.214844 122.046875 211.449219 122.734375 211.632812 C 127.277344 212.851562 126.960938 213.445312 129.65625 213.933594 C 135.027344 214.914062 139.550781 213.15625 141.105469 212.527344 C 142.183594 212.09375 145.484375 210.660156 148.113281 207.917969 C 148.59375 207.417969 149.457031 206.507812 150.25 205.105469 C 150.96875 203.835938 151.082031 203.136719 151.621094 201.691406 C 151.730469 201.386719 152.726562 198.742188 154.4375 196.148438 C 154.683594 195.773438 155.863281 194.011719 157.855469 192.050781 C 158.257812 191.65625 161.191406 188.820312 165.289062 186.84375 C 167.261719 185.894531 168.25 185.421875 169.394531 185.136719 C 169.773438 185.042969 170.484375 184.886719 171.359375 184.453125 C 171.664062 184.304688 172.375 183.929688 173.152344 183.257812 C 173.390625 183.054688 173.996094 182.511719 175.203125 180.785156 C 175.902344 179.789062 176.085938 179.417969 176.484375 178.820312 C 176.484375 178.820312 177.695312 177.015625 179.457031 175.535156 C 182.839844 172.6875 186.328125 174.796875 190.671875 171.695312 C 191.683594 170.972656 192.25 170.316406 192.53125 169.964844 C 193.960938 168.167969 194.261719 166.253906 194.519531 164.785156 C 194.519531 164.785156 194.730469 163.578125 196.121094 157.234375 C 197.34375 151.660156 197.957031 148.875 200.160156 146.738281 C 202.289062 144.671875 203.46875 145.496094 207.082031 142.386719 C 209.886719 139.972656 210.386719 138.433594 210.5625 137.640625 C 210.660156 137.195312 210.957031 135.597656 209.898438 132.914062 C 208.316406 128.882812 206.050781 128.421875 204.257812 125.492188 C 203.800781 124.742188 203.203125 123.550781 202.976562 113.972656 C 202.9375 112.363281 202.855469 108.136719 202.976562 101.683594 C 203.078125 96.300781 203.226562 94.652344 203.234375 89.652344 C 203.238281 87.484375 203.214844 86.617188 203.234375 83.765625 C 203.269531 79.128906 203.355469 79.210938 203.234375 78.390625 C 202.960938 76.527344 202.019531 74.5625 200.15625 70.710938 C 199.246094 68.828125 198.117188 66.511719 197.851562 66.613281 C 197.65625 66.6875 198.144531 67.921875 198.429688 70.070312 C 198.753906 72.550781 198.402344 73.152344 198.621094 75.320312 C 198.875 77.859375 199.421875 77.621094 199.839844 80.3125 C 200.082031 81.863281 200.503906 84.570312 199.519531 87.480469 C 198.96875 89.109375 198.585938 88.984375 197.851562 91.0625 C 197.15625 93.039062 196.96875 94.65625 196.828125 95.925781 C 196.65625 97.492188 196.691406 99.019531 196.761719 102.070312 C 196.808594 104.0625 196.832031 105.058594 196.957031 105.785156 C 197.171875 107.070312 197.449219 107.746094 198.109375 110.453125 C 198.378906 111.550781 198.519531 112.105469 198.558594 112.375 C 198.832031 114.269531 198.46875 115.40625 198.367188 116.707031 C 198.273438 117.859375 198.460938 118.183594 199.21875 121.738281 C 200.160156 126.128906 200.625 128.34375 200.417969 129.335938 C 199.898438 131.808594 198 132.601562 195.71875 134.796875 C 188.605469 141.636719 189.476562 150.875 184.269531 153.140625 C 182.492188 153.914062 180.675781 153.90625 180.675781 153.90625 C 178.640625 153.902344 177.203125 153.144531 176.574219 152.882812 C 172.890625 151.347656 166.066406 153.902344 162.988281 158.003906 C 160.234375 161.667969 162.621094 163.710938 159.394531 172.847656 C 157.808594 177.355469 156.460938 179.027344 154.78125 180.015625 C 153.089844 181.011719 151.722656 180.917969 147.859375 181.039062 C 140.703125 181.265625 137.128906 181.378906 135.808594 182.0625 C 131.378906 184.359375 133.371094 188.5 127.605469 193.839844 C 125.976562 195.347656 122.839844 198.246094 118.378906 198.703125 C 115.695312 198.976562 114.878906 198.125 110.175781 198.191406 C 105.488281 198.257812 105.679688 199.105469 103.507812 198.703125 C 98.933594 197.855469 98.339844 194.125 93.507812 192.816406 C 90.972656 192.128906 90.683594 193.03125 87.355469 192.816406 C 82.070312 192.46875 77.351562 189.339844 68.125 183.085938 C 63.917969 180.234375 63.625 179.789062 61.71875 178.988281 C 55.667969 176.46875 53.238281 178.710938 49.921875 176.6875 C 45.488281 173.976562 47.183594 168.324219 43.257812 160.304688 C 40.648438 154.96875 36.933594 151.421875 34.285156 149.296875 " fill-opacity="1" fill-rule="nonzero"/><path fill="#dd007e" d="M 67.960938 98.636719 C 68.132812 98.734375 70.441406 96.066406 72.0625 92.070312 C 72.921875 89.949219 73.050781 88.769531 74.371094 86.949219 C 74.980469 86.105469 75.769531 85.042969 77.1875 84.304688 C 78.371094 83.691406 79.410156 83.601562 81.203125 83.449219 C 82.761719 83.320312 84.066406 83.386719 85.222656 83.449219 C 87.203125 83.558594 87.804688 83.734375 88.980469 83.449219 C 90.011719 83.199219 90.769531 82.765625 91.203125 82.511719 C 92.359375 81.839844 92.945312 81.171875 93.765625 80.378906 C 94.414062 79.761719 95.394531 79 97.359375 77.480469 C 99.8125 75.578125 101.039062 74.625 102.144531 74.238281 C 103.3125 73.824219 104.347656 73.765625 106.417969 73.640625 C 107.910156 73.550781 109.253906 73.582031 111.457031 73.640625 C 113.667969 73.695312 114.132812 73.765625 115.132812 73.550781 C 116.277344 73.308594 116.449219 73.050781 117.949219 72.699219 C 119.195312 72.410156 120.160156 72.335938 121.027344 72.273438 C 121.550781 72.234375 122.277344 72.199219 124.960938 72.273438 C 127.5 72.34375 128.792969 72.382812 129.746094 72.527344 C 130.917969 72.707031 131.722656 72.933594 133.335938 73.382812 C 136.65625 74.3125 137.4375 74.894531 137.777344 75.175781 C 138.066406 75.410156 138.515625 75.960938 139.402344 77.050781 C 140.925781 78.921875 141.683594 79.855469 142.050781 80.636719 C 143.058594 82.773438 142.714844 84.648438 142.90625 84.648438 C 143.101562 84.648438 143.578125 82.6875 143.25 80.464844 C 143.089844 79.386719 142.484375 76.566406 140.085938 74.410156 C 138.769531 73.222656 137.359375 72.765625 134.535156 71.851562 C 132.628906 71.234375 132.078125 71.21875 127.269531 70.144531 C 123.003906 69.191406 123.070312 69.121094 120.859375 68.691406 C 119.164062 68.363281 116.984375 67.949219 114.105469 67.667969 C 111.285156 67.390625 109.753906 67.238281 107.613281 67.414062 C 105.949219 67.546875 103.378906 67.773438 100.519531 69.035156 C 97.789062 70.234375 98.242188 70.859375 94.28125 73.042969 C 91.074219 74.8125 89.425781 75.691406 87.359375 75.519531 C 85.839844 75.390625 85.125 74.824219 83.765625 75.261719 C 83.429688 75.375 82.523438 75.664062 80.691406 77.484375 C 78.988281 79.171875 79.03125 79.636719 77.871094 80.8125 C 75.785156 82.917969 74.949219 82.117188 72.828125 84.140625 C 72.289062 84.65625 70.574219 86.332031 69.835938 88.917969 C 69.515625 90.054688 69.386719 91.335938 69.324219 91.988281 C 69.167969 93.582031 69.3125 93.875 69.15625 94.976562 C 68.828125 97.242188 67.839844 98.574219 67.960938 98.636719 Z M 67.960938 98.636719 " fill-opacity="1" fill-rule="nonzero"/><path fill="#f08fb2" d="M 111.203125 164.167969 C 111.292969 164.480469 111.894531 164.617188 117.523438 164.511719 C 120.324219 164.457031 121.71875 164.429688 123.078125 164.339844 C 126.066406 164.140625 126.46875 163.941406 129.144531 163.828125 C 132.085938 163.703125 131.890625 163.933594 133.417969 163.742188 C 136.527344 163.355469 138.78125 162.230469 139.742188 161.695312 C 141.527344 160.707031 142.695312 159.640625 143.332031 159.050781 C 144.570312 157.90625 145.386719 157.152344 146.066406 155.894531 C 146.722656 154.6875 146.429688 154.53125 147.617188 150.886719 C 148.15625 149.226562 148.40625 148.671875 148.71875 148.128906 C 149.472656 146.816406 150.042969 146.507812 150.765625 145.570312 C 152.148438 143.785156 152.445312 141.835938 152.734375 139.941406 C 153.214844 136.761719 152.332031 136.632812 152.988281 134.734375 C 153.933594 132.015625 156.195312 131.011719 155.726562 129.957031 C 155.46875 129.382812 154.566406 129.136719 153.929688 129.273438 C 152.886719 129.5 152.417969 130.796875 152.136719 131.578125 C 151.59375 133.089844 151.683594 134.277344 151.710938 135.675781 C 151.757812 138.390625 151.78125 139.746094 151.457031 140.964844 C 150.941406 142.878906 150.167969 142.5625 146.414062 147.449219 C 145.105469 149.152344 144.28125 150.234375 143.335938 151.882812 C 142.226562 153.828125 142.347656 154.113281 141.625 154.957031 C 140.289062 156.519531 139.273438 156.230469 136.070312 157.859375 C 132.988281 159.421875 132.824219 160.253906 130.085938 161.1875 C 129.644531 161.339844 128.515625 161.707031 127.007812 161.957031 C 125.613281 162.1875 124.578125 162.199219 122.566406 162.210938 C 119.683594 162.230469 118.242188 162.238281 116.757812 162.125 C 115.488281 162.03125 114.824219 161.929688 113.851562 162.210938 C 112.472656 162.605469 111.050781 163.625 111.203125 164.167969 Z M 111.203125 164.167969 " fill-opacity="1" fill-rule="nonzero"/><path fill="#f2a3c7" d="M 19.078125 95.140625 C 18.855469 94.875 26.894531 90.59375 30.359375 81.65625 C 32.144531 77.046875 32.347656 72.140625 32.410156 70.566406 C 32.472656 68.960938 32.285156 66.0625 31.894531 60.324219 C 31.371094 52.5625 31.179688 51.148438 32.238281 49.234375 C 33.652344 46.671875 36.0625 45.460938 38.390625 44.289062 C 41.671875 42.636719 43.214844 42.910156 48.648438 41.554688 C 52.105469 40.695312 50.898438 40.730469 58.730469 38.3125 C 63.503906 36.839844 66.1875 36.140625 70.355469 34.390625 C 73.082031 33.246094 74.640625 32.410156 76.167969 30.976562 C 77.886719 29.363281 78.121094 28.351562 79.757812 26.367188 C 79.992188 26.085938 82.804688 22.71875 86.078125 21.078125 C 90.328125 18.953125 94.785156 20.015625 99.242188 21.078125 C 106.203125 22.742188 106.253906 24.851562 112.914062 25.855469 C 114.398438 26.082031 119.160156 26.691406 120.605469 26.878906 C 124.660156 27.40625 126.367188 27.59375 128.125 28.925781 C 129.855469 30.238281 129.535156 31.054688 131.089844 31.734375 C 132.949219 32.546875 134.117188 31.679688 137.355469 32.171875 C 138.492188 32.34375 138.664062 32.496094 140.457031 32.96875 C 146.265625 34.503906 149.542969 34.226562 149.660156 35.070312 C 149.746094 35.683594 148.136719 36.507812 146.757812 36.949219 C 139.597656 39.222656 133.917969 32.621094 121.972656 29.609375 C 118.21875 28.664062 119.738281 29.550781 112.230469 28.242188 C 100.910156 26.269531 95.109375 23.902344 90.179688 26.195312 C 87.039062 27.65625 85.050781 29.265625 85.050781 29.269531 C 83.765625 30.3125 83.179688 31.046875 81.460938 32.34375 C 81.460938 32.34375 79.9375 33.492188 78.042969 34.5625 C 73.308594 37.242188 65.261719 38.574219 56.507812 41.386719 C 51.613281 42.960938 52.523438 43.0625 47.960938 44.460938 C 41.597656 46.410156 39.3125 46.371094 37.363281 48.558594 C 35.777344 50.335938 35.542969 52.441406 35.140625 56.578125 C 34.859375 59.472656 34.949219 61.699219 35.824219 72.449219 C 36.214844 77.230469 36.488281 80.367188 34.457031 83.027344 C 33.582031 84.171875 32.644531 84.757812 31.894531 85.246094 C 24.609375 89.960938 19.28125 95.382812 19.078125 95.140625 Z M 19.078125 95.140625 " fill-opacity="1" fill-rule="nonzero"/><path stroke-linecap="butt" transform="matrix(0.297974, 0, 0, 0.297501, -50.92272, -46.947078)" fill-opacity="1" fill="#ffec00" fill-rule="nonzero" stroke-linejoin="miter" d="M 526.881266 318.137813 C 533.842338 327.722867 551.199135 317.599474 568.175761 325.595773 C 569.775103 326.344195 573.314631 328.182424 576.211801 326.751231 C 579.226954 325.254387 580.826297 320.593162 580.236375 317.573214 C 577.653831 304.771258 530.7092 297.772856 525.163939 308.972926 C 523.682581 311.953484 525.295033 315.945068 526.881266 318.137813 Z M 526.881266 318.137813 " stroke="#1d1d1b" stroke-width="1.685" stroke-opacity="1" stroke-miterlimit="10"/><path stroke-linecap="butt" transform="matrix(0.297974, 0, 0, 0.297501, -50.92272, -46.947078)" fill-opacity="1" fill="#ffec00" fill-rule="nonzero" stroke-linejoin="miter" d="M 397.452519 708.735326 C 399.327158 717.74265 416.683956 720.85451 427.001025 734.076632 C 427.971118 735.324003 430.055506 738.173258 432.86091 738.842899 C 435.784298 739.5388 438.773233 737.68744 439.415592 735.665388 C 442.168558 727.0651 408.031776 699.084621 399.523799 702.629777 C 397.24277 703.575153 397.01991 706.673882 397.452519 708.735326 Z M 397.452519 708.735326 " stroke="#1d1d1b" stroke-width="1.685" stroke-opacity="1" stroke-miterlimit="10"/><path stroke-linecap="butt" transform="matrix(0.297974, 0, 0, 0.297501, -50.92272, -46.947078)" fill-opacity="1" fill="#ffec00" fill-rule="nonzero" stroke-linejoin="miter" d="M 812.036141 533.643964 C 804.44582 538.856657 808.299973 556.070364 800.093511 570.697419 C 799.320059 572.076091 797.497857 575.096039 797.969794 577.945295 C 798.454841 580.899593 801.312682 582.934775 803.436399 582.764083 C 812.429422 581.96314 825.014411 539.64447 818.44662 533.184406 C 816.716184 531.451219 813.766577 532.435984 812.036141 533.643964 Z M 812.036141 533.643964 " stroke="#1d1d1b" stroke-width="1.685" stroke-opacity="1" stroke-miterlimit="10"/><path stroke-linecap="butt" transform="matrix(0.297974, 0, 0, 0.297501, -50.92272, -46.947078)" fill-opacity="1" fill="#ffec00" fill-rule="nonzero" stroke-linejoin="miter" d="M 249.198727 456.503975 C 251.086475 465.5113 268.430163 468.62316 278.747233 481.845282 C 279.717325 483.092652 281.814824 485.941908 284.607118 486.611548 C 287.530506 487.30745 290.519441 485.45609 291.174909 483.434037 C 293.914766 474.833749 259.777983 446.85327 251.270007 450.398427 C 249.002087 451.343802 248.766118 454.442532 249.198727 456.503975 Z M 249.198727 456.503975 " stroke="#1d1d1b" stroke-width="1.685" stroke-opacity="1" stroke-miterlimit="10"/><path stroke-linecap="butt" transform="matrix(0.297974, 0, 0, 0.297501, -50.92272, -46.947078)" fill-opacity="1" fill="#ffec00" fill-rule="nonzero" stroke-linejoin="miter" d="M 634.561578 778.955693 C 632.04458 786.453044 644.144522 793.924134 646.333786 807.146256 C 646.530427 808.380496 646.897489 811.190361 648.785237 812.516512 C 650.738532 813.908314 653.87167 813.356846 655.261263 811.978173 C 661.173586 806.13523 647.002364 774.596463 638.83523 774.845937 C 636.672185 774.911588 635.13839 777.235636 634.561578 778.955693 Z M 634.561578 778.955693 " stroke="#1d1d1b" stroke-width="1.685" stroke-opacity="1" stroke-miterlimit="10"/><path stroke-linecap="butt" transform="matrix(0.297974, 0, 0, 0.297501, -50.92272, -46.947078)" fill-opacity="1" fill="#ffec00" fill-rule="nonzero" stroke-linejoin="miter" d="M 763.924777 307.476082 C 761.407779 314.973432 773.507722 322.444522 775.683876 335.653514 C 775.893626 336.900884 776.260688 339.710749 778.135327 341.036901 C 780.101732 342.428703 783.23487 341.877234 784.624462 340.498562 C 790.536785 334.655618 776.365563 303.103722 768.19843 303.366326 C 766.035385 303.431977 764.48848 305.756024 763.924777 307.476082 Z M 763.924777 307.476082 " stroke="#1d1d1b" stroke-width="1.685" stroke-opacity="1" stroke-miterlimit="10"/><path stroke-linecap="butt" transform="matrix(0.297974, 0, 0, 0.297501, -50.92272, -46.947078)" fill-opacity="1" fill="#ffec00" fill-rule="nonzero" stroke-linejoin="miter" d="M 383.713906 294.871079 C 379.833535 304.23292 394.987959 312.34739 396.744614 328.300596 C 396.915035 329.79744 397.164113 333.185035 399.510689 334.668748 C 401.949031 336.204983 406.065371 335.285868 408.005557 333.473899 C 416.1858 325.871507 400.297251 288.529188 389.652448 289.500823 C 386.794607 289.763427 384.605343 292.730855 383.713906 294.871079 Z M 383.713906 294.871079 " stroke="#1d1d1b" stroke-width="1.685" stroke-opacity="1" stroke-miterlimit="10"/><path stroke-linecap="butt" transform="matrix(0.297974, 0, 0, 0.297501, -50.92272, -46.947078)" fill-opacity="1" fill="#ffffff" fill-rule="nonzero" stroke-linejoin="miter" d="M 637.970012 619.055985 C 640.028182 626.553336 655.182607 629.94093 664.726223 641.311693 C 665.630769 642.37524 667.570955 644.817459 670.022406 645.50023 C 672.578732 646.209261 675.069511 644.84372 675.528339 643.215573 C 677.494743 636.269692 646.635301 611.624286 639.45137 614.132156 C 637.537403 614.788667 637.498075 617.335928 637.970012 619.055985 Z M 637.970012 619.055985 " stroke="#1d1d1b" stroke-width="1.685" stroke-opacity="1" stroke-miterlimit="10"/><path stroke-linecap="butt" transform="matrix(0.297974, 0, 0, 0.297501, -50.92272, -46.947078)" fill-opacity="1" fill="#ffffff" fill-rule="nonzero" stroke-linejoin="miter" d="M 276.11225 706.857705 C 282.876682 703.023684 282.457182 687.503775 291.14869 675.463371 C 291.97458 674.334173 293.862329 671.852563 293.914766 669.305302 C 293.993422 666.653 292.053237 664.565296 290.349019 664.525906 C 283.138869 664.315822 266.791493 700.26634 270.986489 706.608231 C 272.087676 708.315159 274.565346 707.737429 276.11225 706.857705 Z M 276.11225 706.857705 " stroke="#1d1d1b" stroke-width="1.685" stroke-opacity="1" stroke-miterlimit="10"/><path stroke-linecap="butt" transform="matrix(0.297974, 0, 0, 0.297501, -50.92272, -46.947078)" fill-opacity="1" fill="#ffffff" fill-rule="nonzero" stroke-linejoin="miter" d="M 840.142617 432.712033 C 846.907048 428.878011 846.487549 413.358102 855.179057 401.304569 C 855.991837 400.17537 857.892695 397.693761 857.945132 395.1465 C 858.023789 392.494197 856.083603 390.406494 854.379385 390.367103 C 847.169236 390.17015 830.821859 426.107537 835.003746 432.462559 C 836.118042 434.156356 838.595712 433.578627 840.142617 432.712033 Z M 840.142617 432.712033 " stroke="#1d1d1b" stroke-width="1.685" stroke-opacity="1" stroke-miterlimit="10"/><path stroke-linecap="butt" transform="matrix(0.297974, 0, 0, 0.297501, -50.92272, -46.947078)" fill-opacity="1" fill="#ffffff" fill-rule="nonzero" stroke-linejoin="miter" d="M 297.13967 373.297829 C 303.904101 369.463807 303.484602 353.943898 312.17611 341.903495 C 312.98889 340.774297 314.889748 338.292687 314.955295 335.745426 C 315.020841 333.093123 313.080656 331.00542 311.376438 330.966029 C 304.166288 330.755946 287.818912 366.706463 292.013908 373.061485 C 293.115095 374.755282 295.592765 374.177553 297.13967 373.297829 Z M 297.13967 373.297829 " stroke="#1d1d1b" stroke-width="1.685" stroke-opacity="1" stroke-miterlimit="10"/><path stroke-linecap="butt" transform="matrix(0.297974, 0, 0, 0.297501, -50.92272, -46.947078)" fill-opacity="1" fill="#ffffff" fill-rule="nonzero" stroke-linejoin="miter" d="M 352.185887 556.070364 C 358.609475 560.455854 372.334979 553.221108 386.991247 555.715848 C 388.354621 555.939062 391.435321 556.556182 393.742569 555.479504 C 396.154692 554.376567 397.164113 551.711134 396.456208 550.161769 C 393.454163 543.596664 353.994979 544.804643 350.140826 551.356618 C 349.105187 553.102936 350.704529 555.072468 352.185887 556.070364 Z M 352.185887 556.070364 " stroke="#1d1d1b" stroke-width="1.685" stroke-opacity="1" stroke-miterlimit="10"/><path stroke-linecap="butt" transform="matrix(0.297974, 0, 0, 0.297501, -50.92272, -46.947078)" fill-opacity="1" fill="#ffffff" fill-rule="nonzero" stroke-linejoin="miter" d="M 459.197622 826.276973 C 463.956321 832.435042 479.254948 829.782739 492.429858 836.66297 C 493.662138 837.30635 496.388886 838.816324 498.918993 838.51433 C 501.553975 838.199205 503.336849 835.993329 503.140208 834.299532 C 502.314318 827.143567 464.37582 816.11419 458.699466 821.169321 C 457.17878 822.508603 458.109544 824.872041 459.197622 826.276973 Z M 459.197622 826.276973 " stroke="#1d1d1b" stroke-width="1.685" stroke-opacity="1" stroke-miterlimit="10"/><path stroke-linecap="butt" transform="matrix(0.297974, 0, 0, 0.297501, -50.92272, -46.947078)" fill-opacity="1" fill="#ffffff" fill-rule="nonzero" stroke-linejoin="miter" d="M 676.917931 328.024862 C 681.67663 334.182931 696.975257 331.530628 710.150168 338.410859 C 711.382448 339.054239 714.109196 340.564213 716.639303 340.275349 C 719.274285 339.947093 721.057158 337.741218 720.860518 336.047421 C 720.034628 328.891456 682.09613 317.875209 676.419775 322.91721 C 674.899089 324.256491 675.829854 326.619929 676.917931 328.024862 Z M 676.917931 328.024862 " stroke="#1d1d1b" stroke-width="1.685" stroke-opacity="1" stroke-miterlimit="10"/><path stroke-linecap="butt" transform="matrix(0.297974, 0, 0, 0.297501, -50.92272, -46.947078)" fill-opacity="1" fill="#e20613" fill-rule="nonzero" stroke-linejoin="miter" d="M 260.774295 572.706341 C 265.546103 578.86441 280.844731 576.212107 294.006532 583.092338 C 295.238812 583.735718 297.965559 585.245692 300.495667 584.943698 C 303.143758 584.628573 304.913522 582.422697 304.716882 580.7289 C 303.890992 573.572935 265.965603 562.543558 260.276139 567.598689 C 258.755453 568.937971 259.686218 571.301409 260.774295 572.706341 Z M 260.774295 572.706341 " stroke="#1d1d1b" stroke-width="1.685" stroke-opacity="1" stroke-miterlimit="10"/><path stroke-linecap="butt" transform="matrix(0.297974, 0, 0, 0.297501, -50.92272, -46.947078)" fill-opacity="1" fill="#e20613" fill-rule="nonzero" stroke-linejoin="miter" d="M 636.763951 424.44 C 641.142478 430.085991 656.96548 433.736189 669.878203 442.796035 C 671.084264 443.636368 673.758575 445.57964 676.354229 446.262411 C 679.080976 446.984572 681.0736 446.157369 681.008053 445.00191 C 680.732756 440.064951 642.872914 419.660603 636.645966 420.947364 C 634.994187 421.288749 635.75453 423.153239 636.763951 424.44 Z M 636.763951 424.44 " stroke="#1d1d1b" stroke-width="1.685" stroke-opacity="1" stroke-miterlimit="10"/><path stroke-linecap="butt" transform="matrix(0.297974, 0, 0, 0.297501, -50.92272, -46.947078)" fill-opacity="1" fill="#e20613" fill-rule="nonzero" stroke-linejoin="miter" d="M 722.171454 683.183935 C 726.930153 689.328874 742.22878 686.676571 755.403691 693.556802 C 756.635971 694.200182 759.362719 695.723287 761.892826 695.421292 C 764.527808 695.106167 766.310681 692.887161 766.114041 691.206494 C 765.275042 684.037399 727.349653 673.021152 721.673298 678.076283 C 720.165722 679.415565 721.083377 681.765872 722.171454 683.183935 Z M 722.171454 683.183935 " stroke="#1d1d1b" stroke-width="1.685" stroke-opacity="1" stroke-miterlimit="10"/><path stroke-linecap="butt" transform="matrix(0.297974, 0, 0, 0.297501, -50.92272, -46.947078)" fill-opacity="1" fill="#e20613" fill-rule="nonzero" stroke-linejoin="miter" d="M 620.796746 227.316145 C 617.296546 234.248896 626.263351 246.93268 625.712757 261.769818 C 625.66032 263.16162 625.463679 266.27348 626.813944 268.426835 C 628.242864 270.672101 631.00894 271.328611 632.45097 270.435757 C 638.559934 266.601735 632.215002 227.618139 625.201492 224.663842 C 623.339962 223.876029 621.596417 225.714259 620.796746 227.316145 Z M 620.796746 227.316145 " stroke="#1d1d1b" stroke-width="1.685" stroke-opacity="1" stroke-miterlimit="10"/><path stroke-linecap="butt" transform="matrix(0.297974, 0, 0, 0.297501, -50.92272, -46.947078)" fill-opacity="1" fill="#e20613" fill-rule="nonzero" stroke-linejoin="miter" d="M 395.499224 395.080849 C 403.273077 394.844505 410.155493 380.926481 423.461497 374.335115 C 424.706886 373.717996 427.538509 372.404974 428.783898 370.185969 C 430.094835 367.875052 429.347601 365.130838 427.866243 364.290504 C 421.573748 360.745347 390.334135 384.904935 391.068259 392.467937 C 391.2649 394.489989 393.72946 395.1465 395.499224 395.080849 Z M 395.499224 395.080849 " stroke="#1d1d1b" stroke-width="1.685" stroke-opacity="1" stroke-miterlimit="10"/><path stroke-linecap="butt" transform="matrix(0.297974, 0, 0, 0.297501, -50.92272, -46.947078)" fill-opacity="1" fill="#e20613" fill-rule="nonzero" stroke-linejoin="miter" d="M 370.05395 804.638386 C 376.529975 808.945095 390.176823 801.565916 404.8462 803.876833 C 406.235793 804.100047 409.290275 804.664646 411.597523 803.574839 C 413.996536 802.43251 414.979738 799.753947 414.245614 798.217713 C 411.178023 791.705128 371.718839 793.346404 367.943342 799.9509 C 366.933921 801.710349 368.572591 803.65362 370.05395 804.638386 Z M 370.05395 804.638386 " stroke="#1d1d1b" stroke-width="1.685" stroke-opacity="1" stroke-miterlimit="10"/><path stroke-linecap="butt" transform="matrix(0.297974, 0, 0, 0.297501, -50.92272, -46.947078)" fill-opacity="1" fill="#e20613" fill-rule="nonzero" stroke-linejoin="miter" d="M 520.339693 712.306743 C 522.935347 721.274677 540.882066 731.726325 552.392087 748.204739 C 553.467055 749.754104 555.813631 753.23361 558.72391 755.07184 C 561.752173 756.97572 564.662451 756.634335 565.173716 755.08497 C 567.323652 748.546125 530.394575 708.262638 521.978364 707.711169 C 519.749772 707.566737 519.749772 710.25843 520.339693 712.306743 Z M 520.339693 712.306743 " stroke="#1d1d1b" stroke-width="1.685" stroke-opacity="1" stroke-miterlimit="10"/><path stroke-linecap="butt" transform="matrix(0.297974, 0, 0, 0.297501, -50.92272, -46.947078)" fill-opacity="1" fill="#e20613" fill-rule="nonzero" stroke-linejoin="miter" d="M 757.225892 405.611278 C 758.536829 413.344972 773.311081 420.737281 781.727293 434.235137 C 782.513855 435.495638 784.218072 438.358024 786.603976 439.684175 C 789.081646 441.075977 791.703518 440.445727 792.319658 439.014534 C 794.954641 432.908986 766.585978 400.884402 759.192297 401.304569 C 757.212783 401.42274 756.924377 403.838699 757.225892 405.611278 Z M 757.225892 405.611278 " stroke="#1d1d1b" stroke-width="1.685" stroke-opacity="1" stroke-miterlimit="10"/><path stroke-linecap="butt" transform="matrix(0.297974, 0, 0, 0.297501, -50.92272, -46.947078)" fill-opacity="1" fill="#93c01f" fill-rule="nonzero" stroke-linejoin="miter" d="M 809.204519 560.363943 C 810.515455 568.097637 825.289708 575.489946 833.705919 588.974672 C 834.50559 590.248303 836.196698 593.110689 838.582602 594.43684 C 841.060272 595.815512 843.682145 595.198392 844.298285 593.754069 C 846.933267 587.661651 818.564604 555.637067 811.170923 556.057234 C 809.191409 556.175406 808.889894 558.604495 809.204519 560.363943 Z M 809.204519 560.363943 " stroke="#1d1d1b" stroke-width="1.685" stroke-opacity="1" stroke-miterlimit="10"/><path stroke-linecap="butt" transform="matrix(0.297974, 0, 0, 0.297501, -50.92272, -46.947078)" fill-opacity="1" fill="#93c01f" fill-rule="nonzero" stroke-linejoin="miter" d="M 479.884197 241.181647 C 485.966942 246.131737 501.947256 241.96946 517.180337 246.578164 C 518.609257 247.011461 521.768614 248.048747 524.442924 247.484148 C 527.222109 246.893289 528.782123 244.687413 528.283967 243.2037 C 526.252016 236.874938 483.817006 231.465291 478.533933 236.651724 C 477.118122 238.043527 478.494605 240.052449 479.884197 241.181647 Z M 479.884197 241.181647 " stroke="#1d1d1b" stroke-width="1.685" stroke-opacity="1" stroke-miterlimit="10"/><path stroke-linecap="butt" transform="matrix(0.297974, 0, 0, 0.297501, -50.92272, -46.947078)" fill-opacity="1" fill="#93c01f" fill-rule="nonzero" stroke-linejoin="miter" d="M 303.235524 348.665553 C 304.559569 356.399247 319.333822 363.791556 327.750033 377.276283 C 328.536595 378.549913 330.240812 381.412299 332.613607 382.73845 C 335.104386 384.117123 337.726259 383.500003 338.342399 382.055679 C 340.964272 375.963262 312.608719 343.938677 305.215037 344.358844 C 303.235524 344.477016 302.934008 346.892975 303.235524 348.665553 Z M 303.235524 348.665553 " stroke="#1d1d1b" stroke-width="1.685" stroke-opacity="1" stroke-miterlimit="10"/><path stroke-linecap="butt" transform="matrix(0.297974, 0, 0, 0.297501, -50.92272, -46.947078)" fill-opacity="1" fill="#93c01f" fill-rule="nonzero" stroke-linejoin="miter" d="M 355.961384 648.165663 C 362.516066 652.485502 377.998224 646.708209 393.611476 649.754418 C 395.066615 650.056413 398.330847 650.765445 400.926501 649.925111 C 403.61392 649.045387 404.951075 646.708209 404.321826 645.263886 C 401.647516 639.184599 358.884772 638.094791 354.152292 643.806433 C 352.893793 645.329537 354.453807 647.194027 355.961384 648.165663 Z M 355.961384 648.165663 " stroke="#1d1d1b" stroke-width="1.685" stroke-opacity="1" stroke-miterlimit="10"/><path stroke-linecap="butt" transform="matrix(0.297974, 0, 0, 0.297501, -50.92272, -46.947078)" fill-opacity="1" fill="#93c01f" fill-rule="nonzero" stroke-linejoin="miter" d="M 633.853672 724.58349 C 640.68365 728.470032 655.759419 721.734234 671.543092 723.795677 C 673.02445 723.992631 676.314901 724.504709 678.845008 723.493683 C 681.493099 722.456396 682.672942 720.040437 681.951927 718.648635 C 678.897445 712.75317 636.16092 714.355056 631.795502 720.355562 C 630.615659 721.944318 632.293658 723.703766 633.853672 724.58349 Z M 633.853672 724.58349 " stroke="#1d1d1b" stroke-width="1.685" stroke-opacity="1" stroke-miterlimit="10"/><path stroke-linecap="butt" transform="matrix(0.297974, 0, 0, 0.297501, -50.92272, -46.947078)" fill-opacity="1" fill="#93c01f" fill-rule="nonzero" stroke-linejoin="miter" d="M 547.685826 320.172996 C 549.009871 327.90669 563.784124 335.298999 572.200335 348.783725 C 572.986897 350.057356 574.691114 352.919742 577.063909 354.245893 C 579.554688 355.624565 582.163452 355.007445 582.792701 353.576252 C 585.414574 347.470704 557.05902 315.44612 549.665339 315.866287 C 547.685826 315.984458 547.38431 318.400417 547.685826 320.172996 Z M 547.685826 320.172996 " stroke="#1d1d1b" stroke-width="1.685" stroke-opacity="1" stroke-miterlimit="10"/><path stroke-linecap="butt" transform="matrix(0.297974, 0, 0, 0.297501, -50.92272, -46.947078)" fill-opacity="1" fill="#93c01f" fill-rule="nonzero" stroke-linejoin="miter" d="M 730.862962 465.117393 C 732.173899 472.864218 746.948151 480.256526 755.364363 493.741253 C 756.164034 495.014883 757.855142 497.864139 760.241046 499.203421 C 762.718716 500.582093 765.340588 499.964973 765.956728 498.52065 C 768.59171 492.415102 740.236157 460.403648 732.829367 460.823814 C 730.849853 460.941986 730.561447 463.357945 730.862962 465.117393 Z M 730.862962 465.117393 " stroke="#1d1d1b" stroke-width="1.685" stroke-opacity="1" stroke-miterlimit="10"/><path stroke-linecap="butt" transform="matrix(0.297974, 0, 0, 0.297501, -50.92272, -46.947078)" fill-opacity="1" fill="#35a8e0" fill-rule="nonzero" stroke-linejoin="miter" d="M 453.835892 288.08276 C 455.159938 295.816455 469.93419 303.208763 478.350402 316.69349 C 479.136964 317.96712 480.841181 320.829506 483.213976 322.155658 C 485.704755 323.53433 488.313518 322.91721 488.942767 321.486017 C 491.56464 315.380469 463.209087 283.355884 455.815406 283.776051 C 453.835892 283.894223 453.534377 286.310182 453.835892 288.08276 Z M 453.835892 288.08276 " stroke="#1d1d1b" stroke-width="1.685" stroke-opacity="1" stroke-miterlimit="10"/><path stroke-linecap="butt" transform="matrix(0.297974, 0, 0, 0.297501, -50.92272, -46.947078)" fill-opacity="1" fill="#35a8e0" fill-rule="nonzero" stroke-linejoin="miter" d="M 329.336266 496.235993 C 337.175666 495.723915 346.076924 481.819022 360.392349 474.88627 C 361.729504 474.22976 364.757767 472.837957 366.33089 470.618952 C 367.969561 468.294904 367.615608 465.629472 366.252234 464.854789 C 360.457895 461.598497 325.626317 486.414595 325.272364 493.833164 C 325.180598 495.802696 327.553393 496.341035 329.336266 496.235993 Z M 329.336266 496.235993 " stroke="#1d1d1b" stroke-width="1.685" stroke-opacity="1" stroke-miterlimit="10"/><path stroke-linecap="butt" transform="matrix(0.297974, 0, 0, 0.297501, -50.92272, -46.947078)" fill-opacity="1" fill="#35a8e0" fill-rule="nonzero" stroke-linejoin="miter" d="M 522.424082 787.700414 C 523.735018 795.434108 538.509271 802.826417 546.925482 816.324273 C 547.725154 817.584774 549.416261 820.447159 551.802166 821.786441 C 554.279835 823.165113 556.901708 822.534863 557.517848 821.10367 C 560.15283 814.998122 531.784168 782.973538 524.390486 783.393704 C 522.410973 783.525007 522.122567 785.927835 522.424082 787.700414 Z M 522.424082 787.700414 " stroke="#1d1d1b" stroke-width="1.685" stroke-opacity="1" stroke-miterlimit="10"/><path stroke-linecap="butt" transform="matrix(0.297974, 0, 0, 0.297501, -50.92272, -46.947078)" fill-opacity="1" fill="#35a8e0" fill-rule="nonzero" stroke-linejoin="miter" d="M 729.735557 434.576523 C 737.574956 434.983559 748.036228 422.194734 763.04645 416.95578 C 764.462261 416.469962 767.634727 415.445806 769.443819 413.410623 C 771.344677 411.296659 771.305349 408.604966 770.03374 407.685851 C 764.672011 403.773048 727.19234 424.374349 725.97317 431.701007 C 725.645436 433.644278 727.939574 434.471481 729.735557 434.576523 Z M 729.735557 434.576523 " stroke="#1d1d1b" stroke-width="1.685" stroke-opacity="1" stroke-miterlimit="10"/><path stroke-linecap="butt" transform="matrix(0.297974, 0, 0, 0.297501, -50.92272, -46.947078)" fill-opacity="1" fill="#35a8e0" fill-rule="nonzero" stroke-linejoin="miter" d="M 318.599698 714.315665 C 321.981913 720.368692 336.703729 723.821938 347.79425 733.32821 C 348.842999 734.221065 351.124029 736.256247 353.536151 736.925888 C 356.04004 737.608659 358.085101 736.650154 358.203085 735.376523 C 358.661913 729.953746 325.193708 708.827237 319.019197 710.468513 C 317.367417 710.914941 317.826245 712.923863 318.599698 714.315665 Z M 318.599698 714.315665 " stroke="#1d1d1b" stroke-width="1.685" stroke-opacity="1" stroke-miterlimit="10"/><path stroke-linecap="butt" transform="matrix(0.297974, 0, 0, 0.297501, -50.92272, -46.947078)" fill-opacity="1" fill="#35a8e0" fill-rule="nonzero" stroke-linejoin="miter" d="M 752.480303 741.534592 C 748.770353 748.441083 755.875628 763.357003 754.197629 779.178907 C 754.040317 780.662621 753.620817 783.971434 754.682676 786.479304 C 755.783862 789.105346 758.235313 790.208284 759.611796 789.459862 C 765.432354 786.269221 762.771153 743.582905 756.675299 739.354977 C 755.036629 738.225779 753.319302 739.945837 752.480303 741.534592 Z M 752.480303 741.534592 " stroke="#1d1d1b" stroke-width="1.685" stroke-opacity="1" stroke-miterlimit="10"/><path stroke-linecap="butt" transform="matrix(0.297974, 0, 0, 0.297501, -50.92272, -46.947078)" fill-opacity="1" fill="#35a8e0" fill-rule="nonzero" stroke-linejoin="miter" d="M 720.126393 561.204276 C 716.114928 569.305616 725.933842 584.930567 725.107952 602.630092 C 725.029295 604.284498 724.767108 608.000348 726.261576 610.63952 C 727.808481 613.396865 730.889181 614.34224 732.514742 613.344344 C 739.384049 609.103286 732.855585 562.215303 725.094842 558.3025 C 723.010453 557.238953 721.044049 559.366047 720.126393 561.204276 Z M 720.126393 561.204276 " stroke="#1d1d1b" stroke-width="1.685" stroke-opacity="1" stroke-miterlimit="10"/><path fill="#1d1d1b" d="M 20.699219 81.359375 C 20.601562 78.925781 21.226562 76.5625 22.183594 74.355469 C 23.175781 72.183594 24.765625 70.304688 26.210938 68.429688 C 25.1875 70.542969 24.570312 72.839844 23.734375 75.011719 C 22.824219 77.195312 21.957031 79.308594 20.699219 81.359375 Z M 20.699219 81.359375 " fill-opacity="1" fill-rule="nonzero"/><path fill="#1d1d1b" d="M 117.347656 17.53125 C 122.386719 16.640625 127.660156 16.886719 132.609375 18.199219 C 133.308594 18.414062 134.011719 18.625 134.703125 18.863281 C 130.410156 18.113281 126.085938 17.59375 121.722656 17.578125 C 120.273438 17.566406 118.820312 17.597656 117.359375 17.632812 Z M 117.347656 17.53125 " fill-opacity="1" fill-rule="nonzero"/><path fill="#1d1d1b" d="M 176.8125 35.59375 L 180.261719 41.492188 L 180.226562 41.519531 L 175.984375 36.160156 Z M 176.8125 35.59375 " fill-opacity="1" fill-rule="nonzero"/><path fill="#1d1d1b" d="M 149.210938 118.539062 C 148.785156 116.804688 148.671875 115.042969 148.640625 113.269531 C 148.628906 111.5 148.691406 109.734375 149.015625 107.984375 C 149.429688 109.691406 149.527344 111.488281 149.589844 113.253906 C 149.621094 115.027344 149.574219 116.789062 149.210938 118.539062 Z M 149.210938 118.539062 " fill-opacity="1" fill-rule="nonzero"/></svg>